<mxfile host="app.diagrams.net" modified="2023-03-18T19:13:42.565Z" agent="5.0 (Windows)" etag="9L0LH3_PQBkEr5Qjlpbn" version="21.0.6" type="github">
  <diagram id="R2lEEEUBdFMjLlhIrx00" name="Page-1">
    <mxGraphModel dx="880" dy="462" grid="1" gridSize="10" guides="1" tooltips="1" connect="1" arrows="1" fold="1" page="1" pageScale="1" pageWidth="850" pageHeight="1100" math="0" shadow="0" extFonts="Permanent Marker^https://fonts.googleapis.com/css?family=Permanent+Marker">
      <root>
        <mxCell id="0" />
        <mxCell id="1" parent="0" />
        <mxCell id="QxokrhKzAJ2Y8izEfGHL-11" value="" style="shape=image;verticalLabelPosition=bottom;labelBackgroundColor=default;verticalAlign=top;aspect=fixed;imageAspect=0;image=data:image/png,iVBORw0KGgoAAAANSUhEUgAAApsAAAD8CAYAAAA4/G+vAAAqs0lEQVR4Xu3dfaxUxf34cQsUKBClXAXkSXm4AsbESKAhRBIRCwJt/ceQKPxh0URq5CGlhUBCwkOIqUJCr4QnWyzGhqeqbaIoQqNAK9JqmiikYkCIKPJswag8zy+f4Tf7PXvu7rlz5u7sPWf2/Uo2d+bMmd29e+Z89rNnzp69QQEAAACe3BBfAAAAAFQKySYAAAC8IdkEAACANySbAAAA8IZkEwAAAN6QbAIAAMAbkk0AAAB4Q7IJAAAAb0g2AQAA4A3JJgAAALwh2QQAAIA3JJsAAADwhmQTAAAA3pBsAgAAwBuSTQAAAHhDsgkAAABvSDYBAADgDckmAAAAvCHZBAAAgDckmwAAAPCGZBMAAADekGwCAADAG5JNAAAAeEOyCQAAAG9INgEAAOANySYAAAC8IdkEAACANySbAAAA8IZkEwAAAN6QbAIAAMAbkk0AAAB4Q7IJAAAAb0g2AQAA4A3JJgAAALwh2QQAAIA3JJsAAADwhmQTAAAA3pBsAgAAwBuSTQAAAHhDsgkAAABvSDYBAADgDckmAAAAvCHZBAAAgDckmwAAAPCGZBMAAADekGwCAADAG5JNAAAAeEOyCQAAAG9INgEAAOANySYAAAC8IdkEAACANySbAAAA8IZkEwAAAN6QbAIAAMAbkk0AAAB4Q7IJAAAAb0g2AQAA4A3JJgAAALwh2QQAAIA3JJsAAADwhmQTAAAA3pBsAgAAwBuSTQAAAHhDsgkAAABvSDYBAADgDckmAAAAvCHZBAAAgDckmwAAAPCGZBMAAADekGwCAADAG5JNAAAAeEOyCQAAAG9INgEAAOANySYAAAC8IdkEAACANySbAAAA8IZkEwAAJNq9e7d69NFHVe/evdUNN9yg/0pdlgNNIdkEAAAlXb58WT311FM6wSx3k3ZZDyiHZBMAAJTUVKIZTTjLMeuUktSGcLCFAQBAIzJFHk8qk24uU+okm7WBLQwAABp55JFHGiWUSTdZv5RoQnny5En1wAMPqD59+qjVq1eTbNYItjAAAGikZ8+ejRLKpJusX0o0oZwyZYour1q1qmiKHmFjCwMAgEbatWvXKKFMusn6pUQTSpPAnj17Vh/lJNmsDWxhAABqSF1dXaNEMX6rr6/3cmTTJLBXrlzRt2gbwsUWBgCghtgmdz7O2TTX6Tx9+rT66quvitoQLrYwAAA1xDa5q9S30aMJ5dSpU3V5xYoVasaMGUVtCBdbGACAGpImuav0dTbliObo0aP1VL4knCSbtYEtDABADUmT3PELQqgE+xEHAAByL02yafDb6GiO9CMOAADklkuyCTQHIw4AgBpCsolqY8QBAFBDSDZRbYw4AABqCMkmqo0RBwBADSHZRLUx4gAAqCEkm6g2RhwAADWkWsnm1atX1caNG9W4cePUrbfeqh+3e/fu6oEHHlC///3v1fnz5+NdEKjqjDgAAJAJ1Ug2z5w5o0aNGqVGjBihNm3apH8HXcjfN954Q1+jUxLQv/zlL7GeCJH/EQcAADLDd7IpRzQl0Zw5c6Yul/PBBx+o22+/Xa1ZsybehMD4HXGAI36tAgD88J1sbtiwQR/RTEo0jc8++0zdcsstat++ffEmBMTviANS4nd4AcAv38nm+PHj1ZYtW+KLy/rd736nHn/88fjiQszfvHmzGjZsmOrTp4+eghfyHjBr1izVpUsX1aNHDzV//vyi5Nb0Xb9+vRo6dKheZ+nSpaqhoUEnt3JfW7duLdzX7NmzVbdu3VTPnj3VnDlzeI+pML8jDkipqUQzmnCWY9YpJakNAGqB7xgoSZs5R9PGoUOH1G233RZfXIjXMh2/bds2Xe7fv79uW7x4sa5L8rh8+XJdXrZsWaO+06ZNU3v27Cl679i7d68uyxS+WLJkia6vWrVKrVu3TpcleUXl+B1xQAoyRW4Cgs3NZUrd9AWAWuU7BrZt21ZdunQpvrisCxcuqPbt28cXF+L16dOn1cWLF3W5VatWuq1v3766fvLkSXXixAldHjhwYMm+V65cKdRlfTlqGb2v+vr6wrrffPONLvfr169wX2g+vyMOSOGRRx4pBASbm6xfimkXEljkMhsyZbJ69eqiNgCoRa4xsK6urlEcjt8kcevatatOAG0dPnxYn5cfF4/X0boktFKWxNEkjx06dCi5blN1SXTj/0ebNm0K66L53EYc4IGcKxPf4ZNusn4ppl1MmTJFl2V6JDpFDwC1yjUG2vaTD/jm3EobEp8nTZoUX9woXkfrMgUuZTmgcPz4cV0ePHhwyXWbqssUvpTPnTtXaEdl2Y0coAratWtXCAA2N1m/lGgQMQns2bNndVCKtgFALXKNgbb95ILtpZLHUmR6XM7DfPfdd+NNjeJ1tD5v3jxdjp6zKeVS6zZVj97Xzp07dfm+++4rrIvmsxs5QDPYTr34OLJpElg5Zyd63g4A1CrXGGjbT44QygXb5TqaTZk6daqaOHFifLEWj9fRuiSpM2bMKHwbfeHCheratWsl122qLueMysyX3FfHjh3VhAkT1LFjxwrrovnsRg7QDLYBysc5m+Y6nXLit3w7MtoGALXINQam6Se/DCRT3XIdzVIkWZREc8iQIfpLOQib/cgBHNkGqEp9Gz2aUEowk/KKFSv0p+BoGwDUItcYmLbf2rVr9TUt5TqaBw4c0MsOHjyov6w5YMAAfUSTRLM2pBs5gIM0AarS19mUI5qjR4/WU/mScJJsAqh1rjHQpd/+/fv1BdvNF3rkyziTJ08ueY4mwpV+5AAppQlQ/IIQAPiVJiZHufYDGDnwziVA8dvoAOCHS0wWrv0ARg68I0ABQHa4xmTXfgAjB94RoAAgO1xjsms/gJED7whQAJAdrjHZtR/AyIF3BCgAyA7XmOzaL62rV6+qjRs3qnHjxumLw8vjdu/eXf8Mpvw60fnz5+NdkHHVGTmoadUKUACAprnGZNd+aZw5c0aNGjVKjRgxQm3atEn/GIeQv/J76/JFUUlA5aLxyA//Iwc1rxoBCgBgxzUmu/azJUc0JdGcOXOmLpcjP4Mp1+1cs2ZNvKmi5P81/3O0jPR45eBdtXZQpl4AoGmuMdm1n60NGzboI5pJiaYhP4Mpv060b9++eFPFkGBWDq8ivKvGzsrUCwDYcY3Jrv1sjR8/Xm3ZsiW+uCz5GUz5daK4S5cuqblz56pevXqpTp06qTFjxqgjR47oNvlBkFmzZqkuXbqoHj16qPnz5xeS25MnT+qDE3369NE/qZl0ZFN+nU4ObMi6zz//fFF70mPUKr8jB1D+A1TWpl4AIMtcY7JrP1vdunUrHCiwcejQIf3zl3GLFi3Sz3XlypVqx44duiwHIsTixYt1vaGhQS1fvlyXly1bptumTJmi66tWrSr6JTsRTzanTp1aWHfSpElF7UmPUav8jhxA+Q9QWZt6AYAsc43Jrv1stW3bVh+VtHXhwgXVvn37+GI1YMAA/VzPnj0bb1J9+/bVbXIU88SJE7o8cOBA3dazZ89CP2lPSjbNr9vJEc7PP/+8qD3pMWqV35EDKP8BqlJTLyZYbN68WQ0bNkxPj8gUfLQtvm68vn79ejV06FA9dbJ06VL9yVaSW7mvrVu36nVlimX27Nn6U7wEtzlz5hR+693cj0zPjBw5srA+UzIAKsU1Jrv2q6urK8S2crf6+nrVtWtXnZzZOnz4sE764iQBlfu8cuVKvEkntNImcVVuUu7QoYNua9euXaGf3MxzE9Fy9H5kPUmQo+1Jj1Gr3EYOkEJ0B/WhUlMvJljIdPy2bdt0uX///kVt8XXj9WnTpqk9e/YU6jIVs3fvXl2WKXyxZMkSXZfpl3Xr1umyJJDR+5HzTuUTs2BKBkAlRWNXGr77yfmS5gO+DTOFHWeObJ46dSrepOOwtMlRx+PHj+vy4MGDdVv0aKW8p5h4LKJlYY6CymMcPXq0qD3pMWqV3QgAmsE20Liq1NSLCRYSaC5evKjLrVq1KmqLrxuvS9/oJ2IJNuaTrbkv+QRv1v3mm290uV+/fkX38/XXXxfumykZAJUUjV1p+O4nVw0plTyWIjFaDga8++678Sa1YMEC/ZgrVqxQu3bt0uXhw4frtnnz5ul69MO7lIU5D1P6zZgxoxCPRbQcXVcS3scee6yoPekxapXdCACawTbQxFV76iUeTKL1aPnatWuJ6zZVN1M80VubNm2K1otO/zAlA6CSorEpDd/9zp07p68aIl/mbIokexMnTowv1iQRlVOP5L7k2+hjx47V5+ubNkkkzWlJCxcu1DFdyAGA0aNH6/ceSTijcTtaFvLh/95779VHOM26Ji4nPUatshsBQDPYBpo4236VmnqJB5NovXXr1oWET6ZNktZtqi5T+FKWwBoX7yeYkgFQSfEYY6sa/eTydBLzTHIYJ4mcJJpDhgzRM0Mt5eabb1bPPvusvn7zRx99pP9HSVRRmv0IABylCTRRtv0qNfUST/SidXMOkFxGY/r06YnrNlWPTrHs3LlTl++7775G6xlMyQCopHiMsVWtfmvXrtVfrJQvcx44cEAvO3jwoL72pcRiOaLZkommePPNN9U999yjOnbsqGer7r//fvXpp5/GV8P/l24EAA7SBhrDtl+lpl7iiV60vn37dv1FpEGDBqndu3cnrttUXc4ZlS8OyRSLBKoJEyaoY8eONVrPYEoGQCXFY4ytavbbv3+/vmqImdmRGaHJkyeXPFCA7Es/AoCUXAKNSNMvL1MvANDS0sTWqGr3QzgYAfDONdCk7ZeHqRcAaGlpY6tR7X4IByMA3rkGGpd+TL0AQDKX2Cqq3Q/hYATAO9dA49oPAFCea2ytdj+EgxEA71wDjWs/AEB5rrG12v0QDkYAvHMNNK79AADlucbWavdL6+rVq2rjxo1q3Lhx+gol8rjdu3fX12KWS+TJNTHRMqozAlDTXAONaz8AQHmusbXa/dI4c+aMGjVqlBoxYoTatGmT/m1zIX/lRz8effRRnYDKlUtQff5HAGqea6Bx7QcAKM81tla7ny05oimJ5syZM3W5HLkWs3x5dM2aNfGmTPnHP/6hk2a5WLxcW1m+9Cq/INdc8kVZ8wMi1eZ3BADKPdC49kuLqRcAtcQ1tla7n60NGzbo5Cwp0TTkWsxyibx9+/bFmzLhP//5j2rXrp168MEH9dFaeW+S168SSaLcj+9tUU7LPCpqiuvgdu2XBlMvAGqNa2ytdj9b48ePV1u2bIkvLkuuxSxHC+NMMvbiiy+quro6/Vvnp0+fLmqTgxIjR47Uyy5fvqxmz56tf12uZ8+eas6cOXqZuHTpkpo7d67q1auX6tSpkxozZow6cuRIod+sWbMKvwo3f/78QqL88MMP68eRo5vlxJPGaP3DDz/Uz08e86abbtJJ6+HDhwvrRNdNeh6V5ncEAMo90Lj2sxXa1AsA2HCNrdXuZ0uSPXOgwMahQ4f0NZjjTCImvza3cuVKXX7yySeL2uSghElAlyxZopetWrVKrVu3TpclYROLFi3SdbmfHTt26LIc1BCLFy/W9YaGBrV8+XJdXrZsmW7r2rWrrp89e1bXSzHPpVT9jjvu0OVPPvlEvfXWW7o8fPjwRuuJpOdRaX5HAKDcA41rP1shTb0AgC3X2Frtfrbatm2rjyTaunDhgj4fMs4kYydOnFCnTp3SZTkyGW37+uuvC+vX19frZZJ8yq/TSblfv366TX61Tuqlksa+ffvqNjkPUx5LygMHDtRtrVu31vWk9yXzXErVJfGW8t13361eeOEF9e2335ZcTyQ9j0rzOwIA5R5oXPvZqvTUy+bNm9WwYcNUnz599BS8aGqawvRdv369Gjp0qF5n6dKl+pOmJLdyX1u3bi3cV7kpGwCw5Rpbq91PprJNjCx3k4RPjgZKsmRLppV79+4dX1y4T4mrcpOynD8Zbbty5UphfUlY48+nTZs2RW3R9Q1JjuOP06FDB91m/uekn1Y2jyWuXbtWVJdzPG+88cbCMnnvMe9z0fVE0vOoNLcRAKQQHdxpuPazVempF5mO37Ztmy73799ftzU1TWH6Tps2Te3Zs6dQf+qpp9TevXt1WabwRdKUDQDYco2tWe0nX+Y0H/BtSAydNGlSfHEh/n7xxReFI5vygT/aFiXvB7Ls3LlzRcuFObIp9xNnfk5ZjigeP35clwcPHqzbHnroIV3/17/+Fev1f8zRT0kQzfOMPrfvvvtOvfbaa/o7B7JcEk4RXy/peVSa3ZYEmiG+g9py7Wer0lMvMpVy8eJFXW7VqpVua2qaItpXPgGbuqxvPmma+0qasgEAW66xNav95KohpZLHUiRGy8EAuQxQnIm/cp6mnKMv5aeffrqoLWrevHl6mRxM2Llzpy6bb40vWLBA11esWKF27dqly+bcyWg/cxBCyuLf//63fm/6+c9/rmO9zHpJu3zByDCJrJwLOn369KLnJqeGSfn1119XH3/8sS7fdddduq1z5866bk4FSHoelWa3JYFmiO+gtlz7tdTUS6l6U9MUSX3j9aQpGwCwFY0xaWS1nxxZlKuGyJc5myJf/pk4cWJ8sWbi6nPPPVf4JrdcsSTaFiUHIGQWSo4cduzYUU2YMEEdO3ZMt0lSK6dQyfOSb4aPHTtWn/tv2mbMmFE4vWrhwoV6Otx455139ClZ8v4h71O//OUvi84V3b59u56ZGzRokNq9e3fRczt69Kg+OiqJpTyufAlWkk7x8ssv6+cp/5do6nlUkt2WBJohvoPa8t2v0lMvpepNTVMk9Y3Xk6ZsAMCWbYyMy3I/uTydxFuT0MVJYiWJ5pAhQ8qeDxmPv6gcXlV457rz+u5X6amXUvWmpimS+sbrSVM2AGDLNkbGZb3f2rVr9Rcr5cucBw4c0MsOHjyoVq9eraee5YhmuURTxOMvKodXFd657ry++1V66qVUvalpiqS+8XrSlA0A2LKNkXF56Ld//3591RAzqyQzQpMnTy55oADVk35LAim5BAxRjX6VmHoBgDxJEyOj8tIP2cOWhHeuAaNa/Zo79QIAeZI2Rhp56YfsYUvCO9eAUc1+TL0AqBUuMVLkpR+yhy0J71wDRrX7AUAtcI2ReemH7GFLwjvXgFHtfgBQC1xjZF76IXvYkvDONWBUux8A1ALXGJmXfmldvXpV/6b4uHHj9BVK5HG7d++ur8Usl8g7f/58vAtSqs6WRE1zDRjV7gcAtcA1RualXxryC0HyKzvyM4+bNm1SX331lV4uf+VHP+T3xSUBlSuXwJ3/LYma5xowqt0PAGqBa4zMSz9bckRTEs2ZM2fqcjlyLWb58qj8XnpWyJdXoz/qIa9VudcrqS2Ja79SKnMvQALXwVrtfmkx9QIgj1xjZF762dqwYYM+opmUaBpyLWa5RN6+ffviTS0iTSKYZt0o136lVOZegASug7Xa/dJg6gVAXrnGyLz0szV+/Hi1ZcuW+OKy5FrMcom8uFOnTumDDD/+8Y/VH/7wh6IkLZ6wxeuHDh1SY8aMUTfeeKNq3769uvvuu9Xbb79dWG/z5s1q2LBhqk+fPvq9JXof5R7n5MmT+vlIH7ledLSt3OM11e/y5ctq9uzZqlu3bqpnz55qzpw5epktv1sSUO4Bo9r9bPmaeonu2Eni0ydJzH2+8sorjZb54PO+k6R5TYBa57qP5qWfLUmczIECG5KoyTWY45544gn9XFesWKGefvrpojgYj4nx+vDhw9VLL72kvvvuO/2eIW2S7Jn15H1m27Ztuty/f/+y9xOtT5kyRZdXrVqlf+I42lbu8Zrqt2TJkkLbunXrdHn+/PnXH9yC3y0JKPeAUe1+tnxNvcSDRzm26wmz7p133ll4vmn650WI/xPgi+u+kpd+ttq2basuXboUX1zWhQsX9NHAuB49eujnKkc4jx8/XhSP4rEpXhfvv/++mjVrlrrrrrt0W+vWrQvrnT59Wv9sspRbtWpV6BO/n2hdjjxK+ezZs/poZXzdUo/XVL/6+vrC85Ff1JNyv379CvfZFL9bElDuAaPa/WxVauolacqi3FSHWcdmXRFdd/369UXLmur74YcfqpEjR6pOnTqpm266ST344IPq8OHDuk0C9Ny5c1WvXr10u9zHkSNHiu5bRB976NChOigvXbpUNTQ06CRc/vetW7fqdZOmacz92E4pST8Jpl26dNGPKZ/AbT4c1DrOQ64N0X00jbz0q6uraxQX4jdJnrp27apOnDgR716WxL/evXvHF6t27drp+7xy5YqOjdFYFC1fu3atqC4kFkpd9rn33nuv0fM00tSjz0du0bZyj9dUP3l/MHVza9OmzfUHt+C2JYEUojtEGtXuZ6tSUy9JUxZJUx3R9WzXvfnmm1Xfvn0bBcKkvnfccYeuf/LJJ+qtt97SZVlfLFq0SNdXrlypduzYoctytDf+3Ex92rRpas+ePYW6/L979+7VZTnVQCRN05h+tlNKixcv1nUJrMuXL9flZcuWFdrRGOch147ovpJGaP3kQ5T50GpDYtOkSZPiiws/cyz7kMxmReOROUopH4DlyGc8VsmHdamfO3dO30x7fL00dUmIpSxHIWX/jbaVe7ym+sl7mOnnwm6LAM0Q3SHSqHY/W5WaekmashDlpjri69msK0cT5a8kh/H+5fpKUi11Odr5wgsvqG+//bbQZ8CAAYXnHhW/b1OX4BX9pCz/rwRfKZupoaRpmuj92EwpSWJtHkeOXEh54MCBhXYU83UeciVwPm7lRfeVNELrJ0frSyWPpUjckQ+4Mh7jpk+frh9z7dq16uGHHy6KRyZWyodys170+Zkkbvv27eqZZ54ptMfXi9c7d+6s619//XWj9qlTp+qynEM6Y8aMorZyj9dUv3nz5umyfIDfuXOnLqfZL+22CNAM0R0kjWr3a8mpl/iURdJUR7Rsu+7333+vp5PNuUU2jyPTqTK9bpbJlLQ5fcBMqcjzjoo/tzT1pGmapH6l6vKBQOqS0JqktkOHDoV2FPN1HnIlxLctms/19Qytnxylk6P18iGqKZKITZw4Mb5YkyOacpRU3hvkSGl0zEpSJx/cBw0apHbv3t1oPL/66qu6XU5Xic5wxdeL119++WXVsWNHfXpTvF0+lI8ePVq/p0niGG0r93hN9ZODJrK+vA/I406YMEEdO3ZMt9mw2yJAM0R3kDSy2q9SUy9JUxZJUx3Rcpp1o0c1bR5HyPT6a6+9pqdQZbkEGmE+rcu0UFS8f5p60jRNUr9SdTOtJUc2zQn7gwcPLrSjWKXOQ5axLB9c5FSM559/vmi7uJwfbPpH74fzcZsvuq+kEWI/OS1E4oV8iCpFjmhKojlkyBA942IjHo+gSDbhn+tOl9V+lZp6SZqySJrqiE+fJK0bLcvUv5letnkccw7m66+/rj7++GNdlql2sWDBAl2X575r1y5dlvM5o/1FmnrSNE1SPxF/TaL3Zc7ZlDJKq9R5yGZMmw9Y0e3ken5wfFtzPm7zRV/PNELtJ9PfcrRePkQdOHBALzt48KD+4qZ8sJYjmraJpoiPWSiSTfjnutNltV+lpl6SpiySpjri0ydJ68aD3p/+9Cfrxzl69Kh66KGHdCInR5zknD5JOoUk0XJ0SV4HaRs7dmyjE+NFmnrSNE1SPxF/TeT5SQJvjn4tXLhQfxMUpVXqPOTo0frPP/+80XZyOT84fh+cj9t80dczjZD77d+/Xx+tN7Mi8mFq8uTJJQ8UIL30WwRIyWXHF1nu52PqBai0ap+HbM6VLXUJGNfzg6PrRR+D83HdRV/PNELvB3/YIvDOdcfPer9KT70AlWY7pit1HrK5woKcyytHxqOJouv5wfH1OB+3+WzHRVzo/eAPWwTeue74eejH1AuyzHZMV/o8ZElGH3vssaJE0fX8YM7HrTzbcREXej/4wxaBd647fl76AVllO6YrdR6yHG2899579RFOcx6ymeJ2PT+Y83Erz3ZcxIXeD/6wReCd646fl35AVqUZ05U4D1l+qerZZ5/VP2v50Ucf6ceXL8EhW9KMi6jQ+8Eftgi8c93x89IPyKq0Y7q55yG/+eab6p577tFHIuXb6vfff7/69NNP46uhhaUdF0bo/eAPWwTeue74eekHZJXLmOY85PC5jAsRej/4wxaBd647fl76AVnFmEYpruMi9H7why0C71x3/Lz0A7KKMY1SXMdF6P3gD1sE3rnu+HnpB2QVYxqluI6L0PvBH7YIvHPd8fPSD8gqxjRKcR0XofeDP2wReOe64+elH5BVjGmU4jouQu8Hf9gi8M51x89LPyCrGNMoxXVchN4P/rBF4J3rjp+XfkBWMaZRiuu4CL0f/GGLwDvXHT8v/YCsYkyjFNdxEXo/+MMWgXeuO35e+gFZxZhGKa7jIvR+8IctAu9cd/y89AOyijGNUlzHRej94A9bBN657vh56QdkFWMapbiOi9D7wR+2CLxz3fHz0g/IKsY0SnEdF6H3gz9sEXjnuuPnpR+QVYxplOI6LkLvB3/YIvDOdcfPSz8gqxjTKMV1XITeD/6wReCd646fl35AVjGmUUp9fX18kZXQ+8EfIhG8c93x89IPyCqSzbDV1dXpbcwtvJts25AQiWCNwBbuLbTAhutk2yJcbN9wybadPHlyfHFuMVJhjcAWrtACG65jnw0b2zdcsm3vu+8+1dDQEG/KJUYqrBHYwhVaYMN17LNhY/uGy8TkBQsWxJtyiZEKawS2cIUW2HAd+2zY2L7hCi0mM1JhjcAWrtACG65jnw0b2zdcocVkRiqsEdjCFVpgq2Xnz59XL730kvrFL36hWrVqpf9KXZYjLMTkcIUWkxmpsEZgC1doga3WRBPMm266qZBgfvnllyWXk3iGgZgcrtBiMiMV1ghs4QotsNWCcglmuUQy7frIPmJyuEKLyYxUWCOwhSu0wBaqSiWMlboftCxicrhCi8mMVFgjsIUrtMAWEt+Joe/7hz/E5HCFFpMZqbBGYAtXaIEt71oqAWypx4UbYnK4QovJjFRYI7CFK7TAlkdZS/Sy9nzQGDE5XKHFZEYqrBHYwhVaYMuLvCR0eXmetYaYHK7QYjIjFdYIbOEKLbBlWd4Tt7w//5AQk8MVWkxmpMIagS1coQW2rAk1QQv1/8oLYnK4QovJjFRYI7CFK7TAlgW1lojV2v+bBcTkcIUWkxmpsEZgC1doga2lkHBdx+tQHcTkcIUWkxmpsEZgC5drYNu8ebMaOHCgLp85c0Y98cQTqlu3bvomZVmWxh133KHvM09IrJKF8vpkcawTk8PlGpOzipEKawS2cLkEtu+++051795dzZo1S9enTp2q72ft2rVq9erVuvyrX/0q1ivZr3/9a/3mLfedZaEkUNWW19ctq2OdmBwul5icZYxUWCOwhcslsK1atUr3+9vf/qbrcqRG6idOnNA3KZsjQVGyXG5yVGfYsGGqT58+6o033tBtr776qm6TN/CsyWuilFV5ej2zOtaJyeFyiclZxkiFNQJbuFwC25gxY3S///73v7r+ox/9SNcvX76sLl26pMsdOnSI9fq/N+CZM2eqbdu26XL//v1128cff6zrct9ZkKeEKM+y/jpndawTk8PlEpOzjJEKawS2cLkENplWlH6nTp3S9R/84AeFMXLt2jVdbtWqVbSLZt6AT58+rS5evFi03vHjx3X9lltuifWqnqwnPqHL4uuf1bFOTA6XS0zOMkYqrBHYwuUS2H74wx/qfnJ0R8iRHVO3OdpTqi59pSz3XU1ZTHCQne2S1bEevW+ERbZt2picZYxUWCOwhcslsMmXG6Tf//73P12/8847dV3OYTNHbZLOYytV/+abb3S5R48ehXZfspLIwE5Lbq+sjvXofbe0+P+K5pHXMm1MzjJGBqzlNZDIG5KcJ9WuXTv9BmUbFG3XC4FLYJswYYLu9+mnn+r6b37zG11fs2aNvknZfEM3+lrGX9doXc6Jk/JDDz1UaK+klkxYUDnV3o5ZHevR+0ZYZNumjclZxkiFtbwGNjMF9uWXX6rvv/8+3lxW/I0iZC6B7Y9//KPu98orr+j6t99+qx5//HHVtWtXfYtee1DWa926daFc7g3YfEP3z3/+c6G9uaqdmKC6qrF9szrWsxSfov+bKZf6Fr748MMP1ciRI1WnTp30NnvwwQfV4cOHE1+vaH39+vVq6NCh+qjw0qVLVUNDgz73VR5n69atel05TUEuVdWlSxe93vz589XVq1d1W7nHzxL5P9PG5CzLzkhF5mUpsNkywalUIBRyvtXcuXNVr169dOCRb4YeOXKkaD0JXj/5yU/UgAED1N///nfddujQIb3ujTfeqNq3b6/uvvtu9fbbb19/0BxyCWwXLlzQQXz27NnxpkbeeustNXjw4PjiRn7729+q3r176y9TNEc1EpBaEH+zzzpf2z2rYz1L26ZUjC31LXxhLh31ySef6NdLysOHD2803srVp02bpvbs2VOoP/XUU2rv3r26fPvtt+t1Fy9erOuSiC5fvlyXly1bptvKPX6WyHNKG5OzLDsjFZkX3enzpFzAEosWLdLllStXqh07dujyiBEjitaT6bF33nlHl82biAQmeROTCzJ/8MEHuk0+VeeVa2CTIz02b6w/+9nP1D//+c/44kbkvv7617/GF1vxlWggnyo9HrI01o0sxeRoXDXlUt/CF+YcWPmQ/sILL+gjxfH7SKrL/V65cqVQP3nyZOELV+Zx+vbtW2iLXwu13ONniTw/l5icVdkZqci86E6fJ+UClpCjlVI+e/Zsod0w68mJ/CawtWnTptD+/vvv62mau+66S7eZqbM8ymtgq3RCkQVm3L344ouqrq5OjR49Wr+5iqSpQVFuerDc8ujjGdF6vC2vQhwnIkvbJmncxOsbN27Us0JmuYznLVu2FK1nLimVdD9J9bZt2+qy7DMmETVXDCj3+FkizyuPMbmc7IxUZF50p86TpIAkU+BSlmQyLqmfTM1Iedy4ceq9995rtG7e5CmwhZo4GGYsyU8iyhF3KT/55JO6LWlqUJSbHiy3PPp4RrQebwtBSOMnS9smadzE60JmhV577TX16KOP6jZJ+OQDu5QlOZRrmsb7panLdLqU5cimuWJA9Mh0qcfPEnlOeYnJNrIzUpF58WCRF0kByRzZNBdrjkrqJ0eIpHzu3Dl9i6+bN74CmxyZM69NpW7mC18//elP9Ze+QmP+T5n6M2+4ck6xSJoaFOWmB8stF+bxStXjbaGR8SPjKDquKn2TfcAXuf+sMP9vvFyqLqcqSf31118v/JKSzBCZeCynNE2fPr1RvzT1efPm6XL0g5mURbnHzxJ5Tj5ickvJzkhF5kV36jxJCkiyI0t5xYoVateuXbpsc8Tntttu0+Xt27erZ555ptG6eRMNbOZ/qcTNxxttSEemSjGvXXT6Ty7bJZKmBkW56cFyy6OPJ+JTl9FyKKo9fnx84JJbfX29/psV5nnFy6XqR48e1Zd86ty5s/7gPmrUKJ30STyVD0aDBg1Su3fvbtQvTV3OFZ0xY0bhlJOFCxfq8S3KPX6WyP9BsomalKXAlkZTAUnOgbv11lt10Bk7dqz67LPPGq0Xr8tlSyQoys/YyTch4+vmTV4DW7UTh2owY+mLL74oHNk0Xz5rampQlJseLLc8aeoy7+PaCHGciBC2DUrLa0wuh5EKawS2cIUQ2EJJKEyCJ+dpmguGP/3007otaWpQlJseLLdcJE1dRst5E8p4SJLXbYOmhRCToxipsEZgC1dogS3PiYZJ8J577rnCN8fNBcOTpgZFuenBcstF0tRl3pLNPG93F3naNkgntJjMSIU1Alu4QgtsUXlLQPKW4LW0vG3fSmKchCu0mMxIhTUCW7hCC2zl5CExIdlsWh62YzUwTsIVWkxmpMIagS1coQU2GyQs+cL2aoyYHK7QYjIjFdYIbOEKLbClRSKTTWyXZMTkcIUWkxmpsEZgC1doga05SHBaFq+/PWJyuEKLyYxUWCOwhSu0wFYpJD7VwevshpgcrtBiMiMV1ghs4QotsPlAQlRZvJ7NR0wOV2gxmZEKawS2cIUW2HwjUXLD61ZZxORwhRaTGamwRmALV2iBrZpIoJLx+vhDTA5XaDGZkQprBLZwhRbYWgqJ1XW8DtVBTA5XaDGZkQprBLZwhRbYsqDWEq5a+3+zgJgcrtBiMiMV1ghs4QotsGVNqIlYqP9XXhCTwxVaTGakwhqBLVyhBbYsy3uClvfnHxJicrhCi8mMVFgjsIUrtMCWF3lJ3PLyPGsNMTlcocVkRiqsEdjCFVpgy6OsJXRZez5ojJgcrtBiMiMV1ghs4QotsOVdSyV6LfW4cENMDldoMZmRCmsEtnCFFthC4jsB9H3/8IeYHK7QYjIjFdYIbOEKLbCFqlKJYaXuBy2LmByu0GIyIxXWCGzhCi2w1YK0CWPa9ZF9xORwhRaTGamwRmALV2iBrdaUSyS//PLLkstJMMNATA5XaDGZkQprBLZwhRbYalm5xJMEMzzE5HCFFpMZqbBGYAtXaIENqAV1dXV63+UW3k22bUgxmewB1ghs4d5CC2xArZg8ebLed7mFd3vggQeCickkm0iFwBbuLaTABtSShoYGve9yC++2aNGi+ObOJZJNpEZgC/cWSmADAGQHySYAAAC8IdkEAACAN/8P1jTUbI70dcMAAAAASUVORK5CYII=;" parent="1" vertex="1">
          <mxGeometry x="80" y="150" width="667" height="252" as="geometry" />
        </mxCell>
      </root>
    </mxGraphModel>
  </diagram>
</mxfile>
